<svg width="32" height="32" viewBox="0 0 32 32" fill="none" xmlns="http://www.w3.org/2000/svg">
<g clip-path="url(#clip0_238_10)">
<rect width="32" height="32" fill="#3F2FEE"/>
<path d="M15.6119 17.2859C14.2119 18.0669 12.9358 19.4748 11.8915 21.3695C11.6286 21.8411 11.3965 22.3132 11.1956 22.7848H9.60983L5 10H8.03186L11.6672 20.3022L15.3026 10H18.3188L17.5375 12.1654L19.2391 16.9918C19.2161 16.9688 19.1927 16.9454 19.1696 16.9297C18.2338 16.2186 17.0042 16.4971 15.6119 17.2859ZM20.4075 20.3026C20.361 20.1555 20.3146 20.0089 20.2526 19.8774C20.0825 19.4752 19.8504 19.1502 19.5332 18.9107C19.1232 18.6092 18.6516 18.4929 18.1258 18.5471C17.747 18.5858 17.3522 18.7172 16.9656 18.9415L18.3501 22.7856H22.4492L27.0591 10.0008H24.0428L20.4075 20.3026Z" fill="white"/>
</g>
<defs>
<clipPath id="clip0_238_10">
<rect width="32" height="32" fill="white"/>
</clipPath>
</defs>
</svg>
