<svg width="256" height="256" viewBox="0 0 256 256" fill="none" xmlns="http://www.w3.org/2000/svg">
<g clip-path="url(#clip0_133_365)">
<rect width="256" height="256" fill="#3F2FEE"/>
<path d="M124.532 135.59C111.928 142.621 100.441 155.295 91.0398 172.352C88.6729 176.598 86.5833 180.847 84.7748 185.093H70.4992L29 70H56.2938L89.0206 162.744L121.747 70H148.901L141.866 89.494L157.185 132.942C156.978 132.735 156.767 132.524 156.56 132.384C148.135 125.982 137.066 128.489 124.532 135.59ZM167.703 162.747C167.285 161.423 166.867 160.103 166.309 158.92C164.778 155.299 162.688 152.373 159.833 150.217C156.142 147.503 151.896 146.456 147.162 146.944C143.752 147.292 140.198 148.475 136.718 150.495L149.182 185.1H186.084L227.583 70.0074H200.43L167.703 162.747Z" fill="white"/>
</g>
<defs>
<clipPath id="clip0_133_365">
<rect width="256" height="256" fill="white"/>
</clipPath>
</defs>
</svg>
